<svg xmlns="http://www.w3.org/2000/svg" width="256" height="256"><path fill-opacity=".016" d="M0 128.004v128.004l128.25-.254 128.25-.254.254-127.75L257.008 0H0v128.004m.485.496c0 70.4.119 99.053.265 63.672.146-35.38.146-92.98 0-128C.604 29.153.485 58.1.485 128.5" fill="#17181f" fill-rule="evenodd"/><path fill-opacity=".075" d="M137 8.059c0 .582.412.805.915.494.503-.311 1.116 0 1.363.691.246.691.834.894 1.306.452.472-.443.196-1.223-.613-1.735-1.948-1.232-2.971-1.198-2.971.098m-7.25 4.108c-2.371 2.483-2.201 3.152.659 2.606 1.7-.325 2.26-.075 1.905.852-.277.721-.799 1.273-1.159 1.225-2.059-.273-3.155.338-3.155 1.757 0 1.018-.55 1.396-1.5 1.031-.896-.344-1.5-.008-1.5.834 0 .776-.526 1.735-1.17 2.133-.802.496-.955.163-.485-1.061.548-1.429.282-1.68-1.332-1.258-1.254.328-2.384-.099-2.985-1.129-.797-1.366-.978-1.393-1.029-.157-.05 1.199-.337 1.138-1.43-.303-1.023-1.349-1.498-1.475-1.889-.5-.287.717-.565.178-.616-1.197-.073-1.922-.307-2.164-1.013-1.048-.506.799-.697 1.811-.426 2.25.271.439-.209.798-1.066.798-.857 0-1.573-.562-1.589-1.25-.017-.69-.489-.463-1.055.508-.563.967-.747 2.204-.41 2.75.344.557-.508.992-1.946.992-1.407 0-2.559-.381-2.559-.846 0-.465-1.638-.746-3.64-.625-4.514.274-6.443 2.912-3.701 5.059 1.343 1.051 1.435 1.369.341 1.176-.825-.145-1.42.202-1.321.772.098.569-.701 1.035-1.775 1.035-1.181 0-1.758-.508-1.46-1.285.271-.707.005-1.286-.592-1.286-.618 0-.88 1.076-.607 2.5.515 2.696-.937 3.467-1.883 1-1.001-2.607-2.034-1.624-1.575 1.5.275 1.878.001 3-.733 3-.644 0-.894-.45-.554-1 .34-.55-.084-1-.941-1S84 31.502 84 30.893s.725-.829 1.611-.489c1.18.453 1.448.192 1-.974-.336-.877-.611-2.007-.611-2.512 0-.505-.398-.918-.883-.918-1.215 0-2.129 5.266-1.129 6.5.446.55.182 1.58-.588 2.289-.77.71-1.4 1.037-1.4.727 0-.309-1.103.161-2.451 1.044-1.443.945-3.294 1.338-4.5.956-1.47-.467-2.049-.208-2.049.917 0 .866-.839 1.567-1.878 1.567-1.032 0-2.425.661-3.095 1.468-.671.807-1.738 1.37-2.373 1.25-.635-.12-1.073.249-.975.82.099.571-.954 1.131-2.339 1.246-3.416.283-4.36.999-3.674 2.789.364.948.069 1.401-.793 1.218-.755-.16-1.266.255-1.135.923.147.749-.395.971-1.414.58-1.09-.418-1.412-.245-.946.508.388.628-.013 2.238-.891 3.577-2.336 3.566-.192 4.133 3.317.878 3.759-3.486 4.413-3.985 11.696-8.92 6.518-4.417 20.541-11.853 21.75-11.535.412.109.75-.252.75-.802s.93-1 2.066-1c1.136 0 2.823-.405 3.75-.901 4.291-2.296 26.01-4.42 37.088-3.628 26.485 1.894 49.332 12.783 71.682 34.163 4.705 4.501 6.093 6.461 6.201 8.754.023.489.643 1.26 1.378 1.714.734.454 1.345 1.404 1.357 2.112.013.707.8 1.154 1.75.992.951-.161 1.728.176 1.728.75 0 .574-.44 1.044-.979 1.044-.595 0-.532.979.161 2.5 1.26 2.766 2.701 3.139 4.82 1.25 1.184-1.056 1.206-.99.14.424-1.368 1.817-.599 8.826.969 8.826.489 0 .889-.47.889-1.044 0-.574.562-.971 1.25-.881 3.016.391 4.75-.184 4.75-1.575 0-.848-.895-1.5-2.059-1.5-1.132 0-1.781.45-1.441 1 .34.55.382 1 .094 1-.288 0-1-.89-1.582-1.977-.863-1.614-.778-1.87.465-1.394 2.092.803 1.908-.299-.477-2.859-2.364-2.538-2.611-4.218-.5-3.408 1.602.614 1.872-.228.893-2.78-.334-.87-1.346-1.589-2.25-1.597-1.383-.013-1.414-.161-.195-.932 1.131-.715.839-1.068-1.333-1.613-2.009-.505-2.653-1.187-2.32-2.459.784-2.997-.702-4.369-3.253-3.003-1.218.651-2.475.923-2.794.603-.32-.32-.056-.581.585-.581 1.875 0 1.342-4.405-.748-6.196-1.054-.902-2.138-1.418-2.409-1.146-.271.271-.8-.474-1.175-1.655-.428-1.347-1.227-1.939-2.143-1.587-.804.309-1.216.163-.916-.323.301-.486-.126-1.141-.948-1.457-.822-.315-1.494-1.212-1.494-1.994 0-.781-.787-1.357-1.75-1.281-1.199.095-1.647-.457-1.423-1.755.39-2.261-1.647-3.772-4.071-3.018-1.238.385-1.58.118-1.181-.923.376-.981-.039-1.416-1.256-1.315-1.202.099-1.767-.475-1.665-1.692.112-1.336-.358-1.707-1.715-1.352-1.249.326-2.076-.164-2.494-1.478-.598-1.886-.678-1.892-1.953-.149-1.42 1.942-2.927 1.202-3.094-1.519-.327-5.324-.37-5.428-1.765-4.27-1.04.863-1.666.775-2.614-.367-.685-.825-1.617-1.271-2.071-.991-.454.281-1.231-.215-1.726-1.101-.496-.885-1.311-1.457-1.812-1.271-.5.187-1.052-.898-1.226-2.41-.182-1.574-.93-2.75-1.75-2.75-.789 0-1.434-.45-1.434-1s-.45-1-1-1-1 .675-1 1.5c0 2.289-2.776 1.787-4.132-.747-.742-1.385-1.363-1.769-1.619-1-.542 1.625-2.385 1.623-2.174-.003.343-2.642-.126-3.668-1.446-3.161-.754.289-1.649-.198-1.989-1.083-.424-1.107-.23-1.377.621-.866.821.493.775.172-.133-.948C154.429 13.598 153 13.51 153 15.5c0 1.391-.918 1.818-2.75 1.28-.412-.122-.618-.797-.456-1.5.165-.718-.603-1.28-1.75-1.28-1.131 0-2.044.656-2.044 1.469 0 .959-.577 1.247-1.664.83-1.044-.401-1.419-.242-1.006.426.362.586.038 1.304-.72 1.595-1.125.431-1.177-.006-.286-2.367.737-1.952 1.346-2.498 1.869-1.675.545.858.781.718.792-.469.022-2.423-2.083-3.386-3.166-1.449-.505.902-1.657 1.64-2.56 1.64-1.386 0-1.339-.229.3-1.468 1.859-1.406 1.825-1.47-.809-1.5-1.542-.018-2.757.517-2.765 1.218-.011.872-.289.817-.92-.18-1.299-2.051-3.298-2.015-5.315.097M107.5 15c-.34.55-.141 1 .441 1S109 15.55 109 15s-.198-1-.441-1-.719.45-1.059 1m-1.864 3.506c-.315.822-.164 1.494.336 1.494 1.356 0 2.198-1.777 1.149-2.425-.501-.31-1.169.109-1.485.931M88 22c-1.282.828-1.246.972.25.985.963.008 1.75-.435 1.75-.985 0-1.22-.113-1.22-2 0m85 0c0 .55.45 1 1 1s1-.45 1-1-.45-1-1-1-1 .45-1 1m-72.187.683c.721.289 1.584.253 1.916-.079.332-.332-.258-.568-1.312-.525-1.165.048-1.402.285-.604.604M76.705 33.674c.481 1.252.234 1.517-.98 1.051-1.143-.439-1.459-.194-1.067.826.681 1.775 1.128 1.806 2.744.19C78.734 34.409 78.441 32 76.948 32c-.487 0-.596.753-.243 1.674M189.5 37c.34.55.816 1 1.059 1s.441-.45.441-1-.477-1-1.059-1-.781.45-.441 1m-131 1c.34.55.816 1 1.059 1s.441-.45.441-1-.477-1-1.059-1-.781.45-.441 1m9.5-.607c0 .216.675.652 1.5.969.825.316 1.5.139 1.5-.393 0-.533-.675-.969-1.5-.969s-1.5.177-1.5.393m-2.527 2.563c.325.526 1.252.703 2.059.393 2.067-.793 1.824-1.349-.591-1.349-1.132 0-1.793.43-1.468.956M60.5 42c.34.55.816 1 1.059 1s.441-.45.441-1-.477-1-1.059-1-.781.45-.441 1m139 0c-.34.55-.141 1 .441 1S201 42.55 201 42s-.198-1-.441-1-.719.45-1.059 1m-147 4c-.34.55-.141 1 .441 1S54 46.55 54 46s-.198-1-.441-1-.719.45-1.059 1m-2.514 3.901c1.206.818 1.275 1.57.366 3.978-.867 2.296-.845 2.864.097 2.502.67-.257 1.27-1.01 1.334-1.674.064-.664.252-2.09.417-3.169.201-1.315-.359-2.074-1.7-2.303-1.624-.278-1.72-.153-.514.666m-3.319.766c-.367.366-.667 1.131-.667 1.7 0 .626.466.567 1.183-.15.651-.651.951-1.416.667-1.7-.284-.284-.817-.217-1.183.15M41 54c0 .55.477 1 1.059 1s.781-.45.441-1-.816-1-1.059-1-.441.45-.441 1m.01 2.892c-1.545.43-2.053.963-1.34 1.404 1.359.84 4.33-.123 4.33-1.403 0-.491-.112-.848-.25-.793-.138.055-1.37.411-2.74.792m6.78 3.072c-.862 1.382-1.904 1.795-3.508 1.392-3.094-.777-3.122 2.371-.032 3.613 1.237.497 1.688.933 1 .968-.687.034-1.581.122-1.985.193-.404.072-1.453-1.166-2.331-2.75-1.702-3.071-5.708-4.84-4.636-2.046.324.845.052 1.773-.604 2.062-.657.288.058.265 1.589-.052 2.707-.562 2.775-.469 2.5 3.411-.174 2.445-.717 3.822-1.404 3.559-.617-.236-1.854.304-2.75 1.2C34.124 73.019 34 73.019 34 71.512c0-2.972-1.692-.641-1.78 2.452-.057 2.009.399 3.036 1.347 3.036.788 0 1.433.375 1.433.833 0 1.154-3.359 1.081-4.124-.09-.343-.524-1.288.376-2.099 2.002-1.318 2.643-1.305 3.08.124 4.126 1.289.943 1.18.974-.564.161-1.189-.555-2.371-1.577-2.625-2.271-.353-.964-.755-.986-1.705-.093-.981.921-.817 1.433.773 2.427 1.656 1.034 1.811 1.59.868 3.112-.907 1.464-.833 2.055.352 2.808.917.584 1.033.96.298.97-.752.009-1.061 1.139-.823 3.015.209 1.65-.086 3-.655 3-.569 0-.746.752-.393 1.67.352.919.092 2.009-.579 2.424-.948.586-.924 1.11.109 2.354.73.88 1.039 1.889.686 2.243-.354.353-.643.091-.643-.583 0-.674-.457-.943-1.016-.598-.559.346-.787.999-.507 1.453.28.453-.159 2.72-.977 5.037-.818 2.317-1.223 4.639-.901 5.16.321.52-.426 1.822-1.66 2.893-1.235 1.071-1.726 1.947-1.092 1.947 1.863 0 1.322 3.831-.847 6-2.371 2.371-2.589 4.837-.5 5.638 1.821.699 1.971 2.975.25 3.779-1 .466-1 .7 0 1.166.688.321 1.25 1.023 1.25 1.559 0 .537-.52.655-1.155.263-.788-.488-.879-.269-.286.69.477.772.737 2.642.579 4.154-.174 1.657.197 2.751.933 2.751.671 0-.081 1.207-1.672 2.681-2.615 2.424-2.679 2.625-.665 2.099 2.036-.533 2.191-.289 1.793 2.819-.24 1.87-.036 3.401.451 3.401.488 0 1.228 1.012 1.644 2.25 1.196 3.56 1.269 4.75.29 4.75-1.629 0-.968 1.671 1.724 4.364 1.45 1.45 2.295 2.636 1.878 2.636-.417 0-.199.675.486 1.5s.815 1.5.289 1.5-.956.655-.956 1.456c0 .801.375 1.224.834.941.458-.283.833.01.833.651 0 .643.696.899 1.552.57.857-.329 1.289-.169.963.357-.323.524.363 1.903 1.526 3.066 1.162 1.162 1.877 2.731 1.587 3.485-.36.94-.015 1.176 1.097.749 1.196-.459 1.46-.199 1.004.989-.432 1.126.015 1.705 1.486 1.924 1.206.179 2.225 1.166 2.386 2.312.84 5.944 1.591 8.499 2.359 8.025 1.321-.817 4.04.529 4.04 1.999 0 .72-.563 1.554-1.25 1.853-.687.299.036.276 1.608-.052 2.641-.551 2.773-.439 1.75 1.474-1.436 2.683-1.397 3.249.182 2.643.787-.302 1.776.85 2.539 2.961.93 2.573 2.005 3.621 4.21 4.106 2.803.615 4.281 3.491 1.794 3.491-.641 0-.88.286-.531.635.35.35 1.727-.079 3.061-.953 2.28-1.494 2.396-1.477 1.937.279-.323 1.236.277 2.277 1.777 3.08 1.92 1.028 2.479.927 3.671-.664 1.363-1.818 1.397-1.814 1.08.123-.196 1.193.176 1.899.922 1.75.688-.138 1.138.294 1 .959-.137.666.763 1.279 2 1.364 1.237.085 2.25-.221 2.25-.678 0-.458.747-.545 1.66-.195 1.429.548 1.364.747-.463 1.423-1.842.681-1.993 1.163-1.136 3.621.629 1.805 2.161 3.285 4.214 4.071 2.987 1.143 3.395 1.04 5.522-1.4l2.296-2.635-.692 2.759c-.533 2.124-.393 2.574.608 1.956.857-.53 1.057-.411.586.35-.43.697-.052 1.155.953 1.155.926 0 1.452-.558 1.184-1.255-.265-.691.188-1.881 1.007-2.646 1.294-1.209 1.399-1.11.807.755-.881 2.777.153 2.734 2.473-.104 1.517-1.857 2.07-2.021 3.16-.941 1.091 1.082.973 1.18-.679.563-1.796-.67-1.856-.569-.59.986.776.953 2.077 1.477 2.891 1.165.814-.313 2.579.151 3.921 1.03 1.342.88 3.078 1.354 3.859 1.054 1.815-.696 1.979 3.963.169 4.816-.687.324.1.337 1.75.028 1.65-.308 3.5-1.211 4.11-2.006 1.25-1.626 2.849-1.997 1.885-.437-.342.554.168 1.791 1.135 2.75 1.641 1.626 1.715 1.628 1.108.024-.358-.945-.22-1.984.306-2.309.526-.325.966-.002.978.718.012.72.902 2.434 1.978 3.809 1.585 2.026 1.96 2.168 1.978.75.025-1.984 1.546-2.33 2.617-.595.473.763.271.88-.595.345-.848-.524-1.067-.418-.622.302.793 1.283 3.622.478 3.622-1.031 0-.586.635-.489 1.5.229 1.241 1.03 1.512.922 1.57-.628.065-1.735.129-1.726.864.128.482 1.217.357 2.288-.32 2.735-.774.51-.723.739.167.75.705.008 1.54-.657 1.855-1.479.316-.822.984-1.241 1.485-.931.501.31.622 1.032.267 1.606-.913 1.478 1.734 2.885 4.112 2.184 2.63-.774 6.608-5.32 5.902-6.745-.305-.616.41-.02 1.59 1.325l2.144 2.444-.574-2.944c-.316-1.62-.309-2.382.015-1.695.771 1.634 2.423 1.611 2.423-.033 0-.769 1.101-1.223 2.75-1.134 1.512.082 3.399-.353 4.192-.967 1.084-.839 1.265-.821.728.073-.466.778-.005 1.137 1.333 1.036 1.209-.091 1.846-.675 1.558-1.428-.269-.7.057-1.166.725-1.035.668.131 1.103-.321.966-1.005-.167-.842 1.027-1.192 3.709-1.087 2.338.091 3.705.562 3.341 1.15-.373.604.263.766 1.621.41 1.594-.417 2.09-.207 1.73.733-.726 1.891 3.594 1.432 5.747-.612 1.3-1.234 1.43-1.838.514-2.404-.739-.457-.966-.34-.574.294.357.577-.034 1.311-.869 1.632-1.236.474-1.321.216-.459-1.396.582-1.087 1.548-1.977 2.146-1.977.731 0 .695-.472-.111-1.444-.978-1.178-.837-1.416.768-1.295 1.164.088 1.763.676 1.468 1.444-.273.712.028 1.295.669 1.295s.888.45.548 1c-1.062 1.718.709 1.091 2.121-.75 1.172-1.53 1.467-1.561 2.345-.25 1.111 1.661 1.112 1.66 1.401-2.308.2-2.75 2.81-5.563 3.448-3.716.173.501 1.034.635 1.914.298 1.148-.441 1.368-.24.781.711-.545.881-.433 1.085.335.61.635-.392 1.162-1.699 1.17-2.904.017-2.404 1.325-4.974 2.375-4.667 1.82.531 4.747-.993 4.056-2.111-.486-.787-.338-.965.416-.498.644.398 2.382.943 3.861 1.211 2.672.485 2.677.474.797-1.604-1.042-1.151-2.485-1.866-3.207-1.589-2.543.976-1.275-.305 1.841-1.86 1.734-.865 4.322-1.577 5.75-1.581 1.787-.005 2.956-.785 3.752-2.5.681-1.469.76-2.492.191-2.492-.531 0-.682-.457-.337-1.016.346-.559 1.047-.758 1.559-.441.512.316.931-.037.931-.785 0-2.009 2.364-6.741 3.372-6.75.48-.004.346-.643-.298-1.419-.801-.965-.839-1.616-.123-2.059 1.64-1.013 1.231-2.523-.701-2.593-1.341-.049-1.224-.275.5-.968 1.237-.498 2.25-1.594 2.25-2.437 0-.842.498-1.532 1.107-1.532s.875.603.593 1.341c-.778 2.025.744 3.81 2.63 3.086 1.813-.696 2.291-2.427.67-2.427-.55 0-1 .477-1 1.059s-.518.739-1.151.347c-.81-.5-.652-1.077.529-1.94 1.566-1.145 1.559-1.277-.099-1.919-1.675-.65-1.666-.773.162-2.118 1.068-.786 1.405-1.429.75-1.429-2.774 0-1-2.701 1.827-2.781 2.049-.059 2.804.294 2.353 1.097-.416.742-.146.702.724-.108 1.183-1.1 1.173-1.425-.07-2.192-.902-.558-1.948-.495-2.741.164-.706.586-1.284.753-1.284.371 0-1.031 2.712-3.551 3.822-3.551 1 0 2.615-2.936 2.337-4.25-.088-.412.243-.75.734-.75s1.156-.685 1.478-1.523c.476-1.243.22-1.328-1.394-.465-1.348.722-1.977.729-1.977.023 0-.569.675-1.035 1.5-1.035s1.5-.675 1.5-1.5.477-1.5 1.059-1.5.721.563.308 1.25c-.599.997-.441.999.783.009.844-.683 1.83-.946 2.192-.584.362.362.658.223.658-.308 0-.532-.482-1.449-1.071-2.038-.762-.762-.401-1.614 1.25-2.95 1.839-1.489 2.321-2.866 2.321-6.631 0-2.613-.364-4.751-.809-4.75-.445.001-.526-.455-.181-1.014.346-.559 1.047-.758 1.559-.441 1.345.831 1.145-.929-.265-2.339-.929-.929-.761-1.545.75-2.752 1.894-1.514 1.885-1.539-.304-.936-1.601.44-2.25.191-2.25-.865 0-.817-.51-1.654-1.134-1.862-.75-.25-.597-.915.452-1.965.873-.872 1.319-1.854.992-2.181-.327-.327-.007-1.303.712-2.169 1.114-1.343.98-1.661-.91-2.155-3.066-.802-2.449-4.541.878-5.321 2.009-.471 2.202-.763 1-1.512-2.968-1.849-4.99-1.57-4.99.687 0 1.188-.224 1.937-.497 1.663-.623-.623-.73-4.329-.249-8.644.203-1.819.023-3.521-.399-3.782-.422-.261-.519-1.121-.216-1.913.304-.791-.35-2.585-1.453-3.988-1.103-1.402-1.883-3.665-1.733-5.029.189-1.727-.217-2.48-1.341-2.48-1.036 0-1.612.859-1.612 2.405 0 1.322.272 2.236.605 2.03.333-.205.598.85.589 2.346-.009 1.495.29 5.869.664 9.719.837 8.608.951 21.331.221 24.583-.298 1.329-.761 4.507-1.028 7.061-.267 2.554-1.358 7.793-2.425 11.643-1.418 5.116-1.642 7.297-.833 8.106.809.809.65 1.107-.593 1.107-2.011 0-2.185 1.111-.45 2.859 1.002 1.01.918 1.133-.423.623-1.105-.421-2.052.069-2.785 1.44-.612 1.143-.876 2.078-.587 2.078.289 0-.258.915-1.215 2.032-.957 1.118-1.745 2.356-1.752 2.75-.042 2.649-3.61 8.434-7.687 12.463-2.641 2.61-4.801 5.497-4.801 6.417 0 .919-.25 1.421-.557 1.115-.536-.536-6.236 4.175-13.277 10.973-1.851 1.787-3.744 3.25-4.207 3.25-1.654 0-2.108 2.116-.795 3.704 1.214 1.47 1.119 1.489-1.045.207-1.859-1.102-2.479-1.137-2.833-.161-.249.688-1.315 1.25-2.369 1.25-1.054 0-1.917.477-1.917 1.059s-.397.814-.881.514c-.485-.299-2.51.561-4.5 1.911-1.991 1.351-3.619 2.268-3.619 2.038 0-.23-1.35.053-3 .628s-3 1.452-3 1.948-.871.902-1.935.902-3.202.508-4.75 1.129-4.165 1.274-5.815 1.45c-1.65.177-5.475.756-8.5 1.286-5.001.878-23.555.721-33.5-.284-2.2-.222-4.51.018-5.133.533-.751.621-1.349.374-1.774-.732-.352-.917-.922-1.386-1.268-1.041-.345.345-1.16-.101-1.812-.992-.651-.891-2.607-1.671-4.346-1.734-1.739-.063-3.163-.453-3.165-.865-.001-.412-.864-.75-1.919-.75-1.054 0-2.066-.338-2.25-.75-.183-.412-3.424-2.274-7.202-4.136-25.797-12.717-45.312-38.177-52.815-68.907-1.644-6.736-2.119-11.763-2.097-22.207.039-18.322 3.097-31.55 10.961-47.411 3.029-6.109 11.461-18.222 15.782-22.673C53.523 58.794 53.399 58 51.008 58c-1.095 0-2.543.884-3.218 1.964M43 59.393c0 .949 2.993 1.427 3.527.563.325-.526-.336-.956-1.468-.956S43 59.177 43 59.393m-6.541 7.674c-1.026 1.66-.105 1.89 1.33.332.71-.769.849-1.399.309-1.399-.539 0-1.277.48-1.639 1.067m179.724.15c-.651.651-1.183 1.575-1.183 2.054 0 .48.729.143 1.619-.747.891-.891 1.423-1.815 1.183-2.055-.239-.24-.968.097-1.619.748m2.899 8.033c.681 1.513 1.617 2.75 2.079 2.75 1.338 0 .99-.923-1.24-3.292l-2.078-2.208 1.239 2.75M36.5 75c-.34.55-.141 1 .441 1S38 75.55 38 75s-.198-1-.441-1-.719.45-1.059 1M117 88c0 1.65-.45 3-1 3s-1-.45-1-1-1.125-1-2.5-1c-2 0-2.5.5-2.5 2.5V94h35v-2.5c0-2.19-.433-2.5-3.5-2.5-2.833 0-3.5-.381-3.5-2 0-1.111-.667-2-1.5-2-1 0-1.5 1-1.5 3 0 1.65-.45 3-1 3s-1-.45-1-1c0-.564-2.833-1-6.5-1-5.833 0-6.5-.205-6.5-2 0-1.111-.667-2-1.5-2-1 0-1.5 1-1.5 3m-96 0c0 .55.45 1 1 1s1-.45 1-1-.45-1-1-1-1 .45-1 1m209 2c-1.213.784-1.069.972.75.985 1.238.008 2.25-.435 2.25-.985 0-1.253-1.061-1.253-3 0m-5.267.644c-.961 1.526 1.961 8.377 3.53 8.277.968-.062.965-.189-.013-.583-.687-.278-1.247-1.48-1.243-2.671.006-1.96.207-1.88 2.105.833 1.154 1.65 1.826 2.175 1.493 1.166-.401-1.211-.182-1.69.644-1.412 1.44.485 1.785 4.471.596 6.896-.555 1.133-.299 1.845.816 2.274.894.343 1.861.387 2.149.1.288-.288.012-.524-.612-.524s-.887-.647-.584-1.437c.317-.826 1.26-1.194 2.219-.865 1.317.451 1.271.262-.221-.901-1.038-.809-1.678-2.098-1.423-2.864.255-.766-.47-2.18-1.612-3.143-1.793-1.51-1.872-1.889-.577-2.774 1.099-.75.519-.876-2.167-.472-2.994.451-3.733.222-4.024-1.245-.233-1.179-.604-1.405-1.076-.655m4.346 3.939c.048 1.165.285 1.402.604.605.289-.722.253-1.585-.079-1.917-.332-.332-.568.258-.525 1.312M119 100.56c0 3.503.061 3.556 3.75 3.25 3.424-.283 3.777-.593 4.063-3.56.307-3.185.232-3.25-3.75-3.25-3.99 0-4.063.064-4.063 3.56m9 0c0 3.503.061 3.556 3.75 3.25 3.424-.283 3.777-.593 4.063-3.56.307-3.185.232-3.25-3.75-3.25-3.99 0-4.063.064-4.063 3.56m10-.06c0 3.333.167 3.5 3.5 3.5s3.5-.167 3.5-3.5-.167-3.5-3.5-3.5-3.5.167-3.5 3.5M19.813 98.683c.721.289 1.584.253 1.916-.079.332-.332-.258-.568-1.312-.525-1.165.048-1.402.285-.604.604M17.5 101c.34.55.816 1 1.059 1s.441-.45.441-1-.477-1-1.059-1-.781.45-.441 1m92.5 9c0 3.905.083 4 3.5 4s3.5-.095 3.5-4-.083-4-3.5-4-3.5.095-3.5 4m9.186-.314c.299 3.632.481 3.814 3.814 3.814s3.5-.167 3.5-3.5-.182-3.515-3.814-3.814l-3.814-.314.314 3.814m9 0c.299 3.632.481 3.814 3.814 3.814s3.5-.167 3.5-3.5-.182-3.515-3.814-3.814l-3.814-.314.314 3.814m9.814.377c0 3.982.065 4.057 3.25 3.75 2.967-.286 3.277-.639 3.56-4.063.306-3.689.253-3.75-3.25-3.75-3.496 0-3.56.073-3.56 4.063m-124.333 2.604c-1.215 1.214-.691 2.28.833 1.695.825-.317 1.5-.978 1.5-1.469 0-1.048-1.378-1.182-2.333-.226m97.031 2.969c-.384.383-.698 2.197-.698 4.031 0 3.143.2 3.333 3.5 3.333 3.333 0 3.5-.167 3.5-3.5 0-2.355-.464-3.5-1.418-3.5-.78 0-2.041-.239-2.802-.531-.762-.292-1.698-.217-2.082.167m9 0c-.384.383-.698 2.197-.698 4.031 0 3.222.133 3.333 4 3.333 3.905 0 4-.083 4-3.5 0-2.784-.393-3.5-1.918-3.5-1.055 0-2.541-.239-3.302-.531-.762-.292-1.698-.217-2.082.167m9.027-.027c-.399.398-.725 2.224-.725 4.058 0 3.222.133 3.333 4 3.333 3.905 0 4-.083 4-3.5 0-2.126-.491-3.505-1.25-3.514-.687-.007-2.161-.258-3.275-.558-1.114-.299-2.352-.218-2.75.181m103.354 2.974c.048 1.165.285 1.402.604.605.289-.722.253-1.585-.079-1.917-.332-.332-.568.258-.525 1.312M57.722 150.231c-2.628 6.748-4.766 12.607-4.75 13.019.076 2.016 2.165.357 3.464-2.75 1.435-3.436 1.569-3.5 7.328-3.5 5.719 0 5.907.087 7.535 3.5 1.503 3.152 3.701 4.752 3.701 2.693 0-2.489-9.862-24.734-11.066-24.961-.99-.187-2.913 3.527-6.212 11.999M152 142.423v4.424l-3.009-1.501c-4.019-2.006-8.297-.959-11.464 2.804-4.192 4.982-2.515 12.37 3.36 14.803 3.093 1.281 8.616.661 9.698-1.09.345-.559 1.198-.203 1.979.827 1.186 1.564 1.377.006 1.404-11.44.02-8.188-.35-13.25-.968-13.25-.55 0-1 1.991-1 4.423m-90.693 5.616L59.136 154h9.753l-2.112-5.25c-1.162-2.887-2.38-5.57-2.706-5.961-.326-.391-1.57 1.971-2.764 5.25m20.05-3.047c-5.581 2.252-7.187 10.742-2.905 15.362 1.928 2.08 3.383 2.646 6.8 2.646 2.392 0 4.888-.54 5.548-1.2.933-.933 1.2-.724 1.2.943 0 2.482-3.478 5.257-6.588 5.257-1.178 0-3.297-.908-4.707-2.018-1.849-1.454-2.769-1.688-3.294-.838-1.282 2.074 3.441 4.856 8.245 4.856 3.375 0 5.021-.586 6.889-2.455 2.279-2.278 2.455-3.171 2.455-12.441 0-9.237-1.146-13.492-2.609-9.682-.528 1.377-.83 1.384-2.715.064-2.347-1.644-5.069-1.806-8.319-.494m20.418.567c-5.38 2.92-6.53 10.289-2.362 15.135 3.192 3.71 10.324 4.013 13.754.584 2.738-2.738 1.8-4.069-1.325-1.88-2.371 1.661-7.524 2.118-9.442.837-.605-.404-1.634-1.747-2.285-2.985L98.93 155h8.535c9.258 0 9.705-.337 7.34-5.528-1.268-2.785-5.518-5.498-8.505-5.432-.99.022-3.026.706-4.525 1.519m21.225-.567c-.825.53-2.287.717-3.25.418-1.583-.493-1.75.37-1.75 9.023 0 5.711.403 9.567 1 9.567.57 0 1-2.976 1-6.929 0-7.844 1.335-10.071 6.036-10.071 3.849 0 4.964 2.344 4.964 10.434 0 3.711.435 6.566 1 6.566.583 0 1-3.309 1-7.927 0-7.373-.184-8.073-2.635-10-2.868-2.257-5.035-2.575-7.365-1.081m56.5-.06c-1.1.435-2.562.58-3.25.323-.946-.355-1.25 1.881-1.25 9.197 0 6.189.36 9.444 1 9.048.55-.34 1-3.321 1-6.625 0-7.448 1.188-9.875 4.835-9.875 4.207 0 5.165 1.696 5.165 9.141 0 3.708.45 7.019 1 7.359.624.386 1-1.635 1-5.376 0-8.757 1.153-11.124 5.416-11.124 1.906 0 3.815.563 4.243 1.25.427.688.876 4.288.997 8.002.289 8.867 1.762 9.139 2.142.396.341-7.829-1.079-11-5.411-12.087-1.981-.497-3.504-.111-5.558 1.407-1.556 1.151-2.829 1.701-2.829 1.222 0-.862-4.446-3.255-5.797-3.12-.387.039-1.603.427-2.703.862m-22.292 7.714c.267 6.998.523 7.819 3.016 9.676 2.318 1.727 3.237 1.872 6.169.972 2.446-.75 3.758-.743 4.526.025.775.775 1.081-1.665 1.081-8.619 0-5.8-.402-9.7-1-9.7-.557 0-1 2.689-1 6.066 0 7.916-1.117 9.934-5.5 9.934s-5.5-2.018-5.5-9.934c0-3.541-.434-6.066-1.042-6.066-.657 0-.934 2.823-.75 7.646M15.143 147.89c-.834.529-.971 1.098-.355 1.479.552.341 1.26-.053 1.576-.875.662-1.727.6-1.757-1.221-.604m66.257-.125c-1.502 1.003-3.4 4.751-3.4 6.715 0 2.442 4.593 6.52 7.344 6.52 6.007 0 9.237-7.491 5.168-11.987-1.823-2.014-6.92-2.712-9.112-1.248m21 0c-.605.404-1.634 1.747-2.285 2.985-1.176 2.232-1.13 2.25 5.85 2.25 7.517 0 8.813-1.081 5.206-4.345-1.876-1.698-6.811-2.199-8.771-.89m37.103 1.232c-.994 1.098-1.768 3.394-1.719 5.101.264 9.292 14.216 9.196 14.216-.098 0-6.191-8.385-9.547-12.497-5.003M240 152c0 .55.477 1 1.059 1s.781-.45.441-1-.816-1-1.059-1-.441.45-.441 1m-2.5 9c-.34.55.335 1 1.5 1s1.84-.45 1.5-1c-.34-.55-1.015-1-1.5-1-.485 0-1.16.45-1.5 1m-2.471 6.961c-.809.512-1.211 1.191-.893 1.509.319.318 1.148-.108 1.844-.946 1.443-1.738 1.166-1.902-.951-.563m-14.95 14.622c.048 1.165.285 1.402.604.605.289-.722.253-1.585-.079-1.917-.332-.332-.568.258-.525 1.312m6.921 1.81c0 .216.698.661 1.552.989.89.341 1.291.173.941-.393-.587-.951-2.493-1.406-2.493-.596M31.5 194c.34.55.816 1 1.059 1s.441-.45.441-1-.477-1-1.059-1-.781.45-.441 1m192.5 1c0 .55.45 1 1 1s1-.45 1-1-.45-1-1-1-1 .45-1 1m-11.244.664c.691.279 1.002.918.691 1.421-.311.503-.088.915.494.915s1.059-.675 1.059-1.5-.787-1.464-1.75-1.421c-1.056.048-1.252.28-.494.585m3.825 4.985c-.848 2.21-.138 2.727 1.325.964.71-.855.81-1.67.247-2.018-.519-.321-1.226.153-1.572 1.054m-8.549 4.994c-.018 1.179.643 2.402 1.468 2.719 1.903.73 1.916-.43.032-2.921-1.439-1.902-1.469-1.897-1.5.202m5.968 1.75c0 .216.698.661 1.552.989.89.341 1.291.173.941-.393-.587-.951-2.493-1.406-2.493-.596m-164.98 3.131c.696.838 1.471 1.318 1.723 1.067.693-.694-.716-2.591-1.924-2.591-.664 0-.588.574.201 1.524m10.682 7.809c-.317.826.071 1.75.861 2.053 1.612.618 1.825-.226.561-2.22-.688-1.085-.953-1.054-1.422.167M197 222.559c0 .857.45 1.281 1 .941.55-.34 1-1.041 1-1.559s-.45-.941-1-.941-1 .702-1 1.559m-15.436 3.734c.376.986.935 1.541 1.243 1.233.308-.307.001-1.114-.683-1.793-.988-.98-1.102-.865-.56.56M75 229.571c0 .315.675 1.247 1.5 2.072 1.628 1.628 1.832 1.386.893-1.061-.57-1.487-2.393-2.256-2.393-1.011m14.45 4.763c-1.705 1.892-2.484 4.666-1.312 4.666.592 0 .817.675.5 1.5-.725 1.891.084 1.921 1.933.071 1.924-1.923 1.8-2.644-.321-1.87-1.559.568-1.54.399.176-1.555 1.17-1.332 1.563-2.544 1-3.086-.546-.527-1.357-.415-1.976.274m-10.297 1.791c-1.223 1.96-1.167 2.112.608 1.648 1.075-.281 2.694-.098 3.597.407 1.063.596 1.642.55 1.642-.13 0-.578-.513-1.05-1.14-1.05-.627 0-1.639-.683-2.25-1.517-.963-1.317-1.288-1.232-2.457.642m14.387-.778c-1.174.859-1.454 1.588-.772 2.01.589.364 1.674.059 2.41-.678.737-.737 2.011-1.157 2.831-.933 1.31.357 1.309.277-.009-.655-1.94-1.371-2.259-1.353-4.46.256m11.46 1.046c0 .216.675.652 1.5.969.825.316 1.5.139 1.5-.393 0-.533-.675-.969-1.5-.969s-1.5.177-1.5.393M93.638 240.5c.317.825.964 1.5 1.438 1.5.473 0 .602-.675.286-1.5-.317-.825-.964-1.5-1.438-1.5-.473 0-.602.675-.286 1.5m5.862.5c-.34.55-.141 1 .441 1s1.059-.45 1.059-1-.198-1-.441-1-.719.45-1.059 1m6.136 3.494c.316.822.984 1.241 1.485.931 1.049-.648.207-2.425-1.149-2.425-.5 0-.651.672-.336 1.494M93 246.059c0 .582.45.781 1 .441s1-.816 1-1.059-.45-.441-1-.441-1 .477-1 1.059m39-.059c0 .55.477 1 1.059 1s.781-.45.441-1-.816-1-1.059-1-.441.45-.441 1m-12 1.559c0 .857.457 1.276 1.016.931.559-.346.758-1.047.441-1.559-.857-1.387-1.457-1.129-1.457.628" fill="#17181f" fill-rule="evenodd"/><path fill-opacity=".237" d="M133 11.992c0 .589.675 1.33 1.5 1.646 1.81.695 2.014 2.534.25 2.245-2.033-.332-6.92 2.033-6.294 3.046.317.513.112 1.22-.456 1.571-.568.351-.793 1.026-.5 1.5.293.474.075 1.144-.484 1.49-.559.345-1.016.166-1.016-.4 0-.565-.675-.768-1.5-.452-.995.382-1.5-.037-1.5-1.245 0-1.675-.13-1.692-1.61-.211-1.468 1.467-1.773 1.47-3.453.032-2.363-2.023-5.7-2.274-6.388-.48-.294.766-.988 1.113-1.542.77-.554-.342-1.014.192-1.022 1.187-.013 1.552-.166 1.596-1.076.309-.799-1.129-1.187-1.191-1.568-.25-.279.688-.947 1.25-1.483 1.25-.537 0-.698-.45-.358-1 .34-.55.19-1-.334-1s-1.233.732-1.576 1.627c-.532 1.384-.988 1.236-3.053-.992-1.374-1.484-2.697-2.186-3.047-1.619-.926 1.499.493 5.113 1.712 4.359.613-.378.845-.069.553.736-.278.764-1.066 1.258-1.753 1.098-.78-.182-1.014.317-.625 1.332.343.892.623 1.811.623 2.041 0 .697 4.617.467 5.351-.267.848-.848 3.733-1.122 20.149-1.916 15.702-.759 27.202.947 40.796 6.053 5.006 1.881 9.533 3.154 10.058 2.829.564-.349.62-.048.136.734-.585.948-.368 1.152.763.718.913-.35 1.816.005 2.136.839.306.796.905 1.345 1.333 1.222.952-.275 8.019 4.559 13.06 8.933 2.045 1.775 4.229 3.237 4.853 3.25.624.013 1.872 1.148 2.773 2.523.901 1.375 2.145 2.5 2.765 2.5.62 0 3.098 2.086 5.507 4.637 2.409 2.55 4.703 4.313 5.098 3.918.396-.395-.18-1.417-1.28-2.271-1.997-1.552-1.997-1.553.002-.823 1.1.402 2.675 1 3.5 1.329 1.171.467 1.132.226-.179-1.096-.923-.932-2.385-1.694-3.25-1.694-.864 0-1.605-.337-1.648-.75-.305-2.993-.981-4.703-2.11-5.338-.722-.405-2.394-1.676-3.716-2.824-1.322-1.149-3.064-2.088-3.872-2.088-1.244 0-1.264-.27-.13-1.75.736-.962.978-1.449.538-1.082-1.404 1.169-8.944-5.855-7.973-7.427.346-.559-.255-.687-1.45-.308-1.122.356-3.203.356-4.625-.001-2.075-.521-2.585-1.252-2.585-3.707 0-1.682-.296-2.762-.658-2.4-.362.362-1.273.147-2.024-.476-.752-.624-1.641-.86-1.976-.524-.335.335-1.735-.276-3.111-1.358-1.375-1.082-3.19-1.967-4.033-1.967-.842 0-1.234-.297-.871-.66.926-.927-2.831-3.382-6.074-3.971-1.491-.27-3.007-.971-3.37-1.558-.363-.587-1.118-.784-1.678-.438-.622.385-.807-.179-.475-1.447.368-1.408.096-2.014-.844-1.883-2.947.412-4.084-.086-3.524-1.543.316-.825.139-1.5-.393-1.5a.977.977 0 0 0-.969.979c0 .595-.979.532-2.5-.161-1.375-.626-2.5-1.517-2.5-1.979 0-.461-.45-.839-1-.839s-1 .675-1 1.5-.338 1.429-.75 1.341c-.412-.087-1.575.201-2.584.639-1.443.628-1.549.979-.5 1.644 1.032.654.952.849-.354.861-1.056.009-1.633-.708-1.542-1.916.08-1.062.502-1.71.938-1.441.435.27.792-.375.792-1.431 0-1.439-.608-1.855-2.416-1.657-1.329.146-3.354-.608-4.5-1.676S133 11.404 133 11.992M170.5 26c-.34.55-.141 1 .441 1S172 26.55 172 26s-.198-1-.441-1-.719.45-1.059 1m-86 3c.34.55 1.068 1 1.618 1s.722-.45.382-1c-.34-.55-1.068-1-1.618-1s-.722.45-.382 1m8.92.87c.418.676-.008 1.13-1.061 1.13-1.21 0-1.437.322-.726 1.033 1.25 1.25 4.596.153 4.097-1.344-.195-.585-.952-1.263-1.682-1.506-.791-.264-1.044.014-.628.687M88 32.059c0 .582.45.781 1 .441s1-.816 1-1.059S89.55 31 89 31s-1 .477-1 1.059m-4.667 3.566c0 .756.545 1.375 1.211 1.375s1.725-.619 2.352-1.375c.913-1.1.672-1.375-1.211-1.375-1.329 0-2.352.598-2.352 1.375M81 37.059c0 .582-.45.781-1 .441s-1-.141-1 .441-.787 1.062-1.75 1.065c-.963.004-3.034.676-4.604 1.495-1.57.819-3.327 1.196-3.905.839-.577-.357-.758-.177-.401.401.357.577-.024 1.307-.846 1.623-.822.315-1.494 1.248-1.494 2.073 0 .923-.578 1.279-1.5.925-.825-.317-1.5-.048-1.5.598 0 .703-.771.93-1.917.566-1.589-.504-1.818-.23-1.339 1.602.45 1.723.23 2.076-1.001 1.604-1.362-.523-3.447 1.898-2.472 2.872.33.33 1.03-.106 12.363-7.712 3.776-2.534 8.329-5.358 10.116-6.275C81.5 38.205 83.177 36 81.5 36c-.275 0-.5.477-.5 1.059M53 56c0 .55.45 1 1 1s1-.45 1-1-.45-1-1-1-1 .45-1 1m-16.435 4.895c-.305.493.156 1.168 1.023 1.5 2.753 1.057 3.731.694 2.412-.895-1.412-1.702-2.625-1.915-3.435-.605m11.097.561c-1.011.766-1.663 2.214-1.45 3.218.31 1.458.736 1.172 2.114-1.424 1.939-3.653 1.907-3.742-.664-1.794m-6.647 4.794c-.008.963-.513 1.75-1.122 1.75-.609 0-.848.675-.531 1.5.316.825.027 1.507-.643 1.515-.771.01-.668.372.281.985.825.533 1.013.976.417.985-.596.008-1.084.69-1.084 1.515 0 2.477 1.162 1.731 4.464-2.867 3.01-4.191 3.412-7.444.478-3.867-.783.953-1.195 1.263-.915.686.279-.576.095-1.701-.411-2.5-.762-1.204-.921-1.154-.934.298m171.623 3.25c.317.825.953 1.5 1.414 1.5.462 0 1.426 1.204 2.143 2.676.718 1.472 1.943 2.885 2.722 3.139.895.293.539-.785-.967-2.926-3.879-5.514-6.609-7.77-5.312-4.389M32.5 72c-.34.55-.141 1 .441 1S34 72.55 34 72s-.198-1-.441-1-.719.45-1.059 1m186.5.559c0 .857.457 1.276 1.016.931.559-.346.758-1.047.441-1.559-.857-1.387-1.457-1.129-1.457.628M34.015 73.954c-1.367 1.05-2.154 2.24-1.75 2.644.404.405.735.155.735-.554 0-1.019.353-1.002 1.687.084 1.465 1.191 1.607 1.157 1.078-.256-.335-.896-.104-2.133.513-2.75 1.743-1.743.488-1.282-2.263.832M223 75.378c0 .207.787.995 1.75 1.75 1.586 1.243 1.621 1.208.378-.378-1.307-1.666-2.128-2.195-2.128-1.372M36.02 78.476c-.789.95-.865 1.524-.201 1.524 1.208 0 2.617-1.897 1.924-2.591-.252-.251-1.027.229-1.723 1.067m183.138.426c-1.042.644-.956.962.401 1.482 2.06.791 3.191-.034 1.866-1.359-.518-.518-1.538-.573-2.267-.123M32 80.5c0 .825-.45 1.5-1 1.5s-1-.468-1-1.039c0-.601-.592-.495-1.401.25-1.185 1.089-1.03 1.418 1 2.122 3.174 1.102 3.096 3.033-.099 2.422-1.908-.365-2.5-.057-2.5 1.3 0 .978-.562 2.005-1.25 2.283-.747.301-.545.536.5.583.962.043 1.75.556 1.75 1.138 0 .582-.394.815-.876.518-.482-.298-.762.8-.623 2.441.162 1.893-.215 2.982-1.03 2.982-.791 0-1.083.767-.761 2 .3 1.145.031 2-.629 2-.828 0-.861.542-.116 1.934 1.351 2.525 1.311 3.354-.12 2.471-.73-.452-.882-.274-.413.484.407.659.139 1.938-.596 2.842-1.161 1.428-1.1 1.555.466.968 1.082-.406 1.558-.281 1.191.312-.336.544-.17.989.369.989 1.276 0 2.501-5.604 1.558-7.13-.457-.739-.298-.913.425-.465.674.416 1.155.099 1.155-.761 0-.81 1.448-5.224 3.217-9.809 1.769-4.584 3.119-8.673 3-9.085-.119-.412.237-.75.791-.75.598 0 .5-.814-.24-2C33.289 78.633 32 78.4 32 80.5m189.554 3.413c-.37.598-.169 1.087.446 1.087s.8.563.412 1.25c-.564 1-.436 1 .641 0 .97-.9 1.043-1.554.26-2.337-.783-.783-1.275-.783-1.759 0M117 88.5c0 3.862-.659 4.348-2.495 1.838-1.561-2.136-4.505-1.07-4.505 1.631 0 1.964.577 2.031 17.5 2.031 16.833 0 17.5-.076 17.5-2 0-1.619-.667-2-3.5-2-2.798 0-3.5-.389-3.5-1.941 0-1.068-.45-2.219-1-2.559-.582-.36-1 .637-1 2.382 0 3.032-2.05 5.467-2.774 3.295-.216-.647-1.593-1.182-3.059-1.188-5.934-.024-9.996-1.228-10.487-3.106-.835-3.193-2.68-2.08-2.68 1.617m-88.969-1c0 .55.436 1.675.969 2.5.533.825.969 1.05.969.5S29.533 88.825 29 88c-.533-.825-.969-1.05-.969-.5m91.46 10.75c-.731 2.048.113 5.258 1.354 5.15.635-.055 2.055-.167 3.155-.25 1.522-.114 2-.867 2-3.15 0-2.674-.33-3-3.031-3-1.668 0-3.233.563-3.478 1.25m9.509 2.357c0 2.878.32 3.484 1.582 3 .87-.334 2.22-.607 3-.607.909 0 1.418-1.077 1.418-3 0-2.667-.333-3-3-3-2.779 0-3 .266-3 3.607m9-.774c0 3.618.351 3.916 3.994 3.381 2.545-.373 3.006-.884 3.006-3.327 0-2.633-.308-2.887-3.5-2.887-3.176 0-3.5.262-3.5 2.833m91.742 10.667c.254 2.75.932 5.45 1.507 6 .709.679.818.599.339-.25-.451-.798-.052-1.256 1.103-1.265 1.365-.012 1.483-.222.482-.857-.73-.462-1.239-1.468-1.131-2.234.363-2.594-.038-4.015-.971-3.438-.51.315-1.122-.221-1.359-1.191-.237-.971-.223.485.03 3.235M110 109.5c0 3.333.167 3.5 3.5 3.5 3.191 0 3.5-.255 3.5-2.883 0-2.145-.576-3.038-2.25-3.487-4.143-1.11-4.75-.743-4.75 2.87m9.667-2.833c-.367.366-.667 1.941-.667 3.5 0 2.571.324 2.833 3.5 2.833 3.191 0 3.5-.255 3.5-2.883 0-2.145-.576-3.038-2.25-3.487-2.886-.773-3.277-.77-4.083.037M129 109.5c0 3.222.238 3.5 3 3.5 2.64 0 3-.346 3-2.883 0-2.145-.576-3.038-2.25-3.487-3.573-.957-3.75-.822-3.75 2.87m9 0c0 3.333.167 3.5 3.5 3.5 3.191 0 3.5-.255 3.5-2.883 0-2.145-.576-3.038-2.25-3.487-4.143-1.11-4.75-.743-4.75 2.87m-116.815 5.197c-.081 2.16-.775 4.054-1.669 4.554-1.135.635-1.276 1.329-.545 2.696.739 1.38.491 2.467-.993 4.354-2.257 2.869-2.555 4.143-.728 3.111.948-.535.974-.406.107.534-.859.932-.821 1.859.154 3.738 1.584 3.053.953 9.887-1.229 13.316l-1.592 2.5 2.155-1.905c2.532-2.238 2.9-1.076.5 1.576-.99 1.094-1.191 1.829-.5 1.829.635 0 1.155.9 1.155 2s.563 2.007 1.25 2.015c.836.011.753.342-.25 1-1.097.721-1.185 1.189-.327 1.746 1.348.876 4.533 9.484 3.204 8.663-.482-.298-.877.336-.877 1.41 0 1.074.65 2.202 1.445 2.506.794.305 1.749 2.179 2.122 4.164.41 2.185 1.616 4.225 3.055 5.168 1.308.857 2.378 1.971 2.378 2.476 0 .505 1.626 2.545 3.613 4.532 2.416 2.416 3.716 4.714 3.922 6.936.409 4.399 1.125 5.384 3.917 5.384 1.284 0 2.602.698 2.93 1.552.392 1.021.172 1.338-.643.926-.682-.345-.406.052.611.881 1.018.83 1.554 1.988 1.191 2.574-.39.631.232 1.067 1.522 1.067 1.791 0 1.967.259.98 1.448-1.007 1.213-.787 1.373 1.352.985 2.076-.376 2.433-.147 1.906 1.226-.484 1.261-.243 1.533.952 1.074 1.928-.74 4.219 1.695 3.179 3.378-.448.724-.318.936.33.536 1.851-1.144 6.238 1.154 6.238 3.269 0 1.081.45 2.244 1 2.584.55.34 1-.057 1-.882s.516-1.819 1.146-2.208c.805-.498.95.072.487 1.914-.555 2.214-.383 2.521 1.105 1.972.969-.357 2.093-1.133 2.497-1.723.446-.652.74-.406.75.627.008.935-.772 2.159-1.735 2.72-1.563.91-1.509 1.022.5 1.05 1.237.016 2.25-.475 2.25-1.092 0-.761.499-.709 1.547.161 1.095.909 1.215 1.49.408 1.989-.731.452-.019 1.502 1.988 2.931 2.147 1.53 3.508 1.921 4.342 1.249 1.438-1.157 5.715.204 5.715 1.819 0 .6.457.808 1.016.463.559-.346.758-1.047.441-1.559-.84-1.359.913-1.138 2.531.319.994.895.947.54-.165-1.25-.855-1.375-4.943-4.3-9.086-6.5-24.798-13.171-42.684-34.563-51.036-61.041-4.277-13.56-5.824-31.405-3.793-43.755.671-4.077.522-4.939-.994-5.75-2.547-1.363-2.576-1.334-2.729 2.743M110 119.5c0 3.333.167 3.5 3.5 3.5s3.5-.167 3.5-3.5-.167-3.5-3.5-3.5-3.5.167-3.5 3.5m9.384-2.058c-1.173 3.057.08 5.053 3.374 5.371 3.108.301 3.242.166 3.242-3.25 0-3.3-.223-3.563-3.031-3.563-1.718 0-3.272.625-3.585 1.442M129 119.5c0 3.222.238 3.5 3 3.5s3-.278 3-3.5-.238-3.5-3-3.5-3 .278-3 3.5m102.082 6.5c-.055 6.235-1.599 21.987-2.597 26.5-.365 1.65-.736 3.9-.824 5-.089 1.1-.519 2.264-.956 2.587-.437.322-.887 2.122-1 4-.186 3.095.055 3.422 2.579 3.514 1.621.059 2.628-.358 2.412-1-.205-.605.905-1.882 2.466-2.836 1.561-.955 2.838-2.192 2.838-2.75 0-1.364-1.332-1.283-2.783.168-.651.651-1.502.866-1.89.477-.61-.61.808-1.962 5.108-4.868.713-.482.659-1.098-.17-1.927-.928-.928-.941-1.551-.056-2.617.798-.961.833-1.612.113-2.074-.62-.399-.725-1.491-.256-2.674.704-1.774.801-1.796.864-.191.038.995.49 1.549 1.004 1.232 1.252-.774.067-7.683-1.604-9.354-1.008-1.008-1.33-1.03-1.33-.092 0 .681-.337.902-.748.49-.412-.412.132-1.392 1.208-2.179 1.915-1.401 1.917-1.497.104-4.566-1.018-1.725-1.337-2.818-.708-2.429 1.538.95 1.451.044-.153-1.59-.713-.726-1.809-2.896-2.435-4.821l-1.137-3.5-.049 5.5m3.918-1.941c0 .582.45.781 1 .441s1-.816 1-1.059-.45-.441-1-.441-1 .477-1 1.059M62.536 138.941c-.32.518-1.654 3.78-2.965 7.25a959.47 959.47 0 0 1-4.463 11.559c-1.171 2.957-1.626 5.25-1.041 5.25.57 0 1.508-1.35 2.083-3 1.017-2.918 1.224-3 7.535-3 6.291 0 6.523.091 7.621 3 .623 1.65 1.673 3 2.333 3 .73 0-.774-4.904-3.834-12.5-4.789-11.891-5.936-13.715-7.269-11.559m90.131-.274c-.367.366-.667 2.686-.667 5.155 0 4.285-.083 4.413-1.829 2.833-2.055-1.86-7.318-2.182-10.226-.625-5.202 2.783-5.872 11.309-1.179 15.001 3.065 2.41 8.911 2.572 11.405.314 1.702-1.54 1.829-1.54 1.829 0 0 .91.45 1.655 1 1.655.613 0 1-4.833 1-12.5 0-6.875-.15-12.5-.333-12.5-.184 0-.634.3-1 .667m-91.528 8.922c-1.177 3.074-2.139 5.999-2.139 6.5 0 .501 2.298.911 5.107.911 3.674 0 4.973-.351 4.629-1.25-.263-.687-1.317-3.613-2.342-6.5-1.025-2.887-2.145-5.25-2.49-5.25-.345 0-1.589 2.515-2.765 5.589M233.5 144c.34.55.816 1 1.059 1s.441-.45.441-1-.477-1-1.059-1-.781.45-.441 1m-153.587 2.282c-4.665 3.582-5.103 9.682-.99 13.795 3.344 3.344 8.227 3.907 11.854 1.366 2.081-1.457 2.223-1.425 2.223.5 0 5.175-7.901 7.916-12.842 4.455-3.286-2.301-3.778-1.031-.576 1.488 3.628 2.854 8.587 2.732 12.112-.298 2.676-2.3 2.822-2.88 3.15-12.5.233-6.844-.008-10.088-.75-10.088-.602 0-1.094.745-1.094 1.655 0 1.54-.127 1.54-1.829 0-2.142-1.939-8.925-2.164-11.258-.373m20.288.746C93.774 153.015 97.573 163 106.277 163c4.459 0 9.205-2.41 8.14-4.134-.369-.598-1.396-.29-2.566.769-2.871 2.598-8.667 2.31-10.98-.546-1.029-1.271-1.871-2.693-1.871-3.159 0-.467 3.713-.98 8.25-1.14 8.134-.286 8.246-.325 7.996-2.79-.623-6.124-10.356-9.341-15.045-4.972M118 154c0 5.333.407 9 1 9 .571 0 1-2.992 1-6.977 0-6.421.209-7.114 2.615-8.69 2.344-1.536 2.889-1.561 5.25-.239 2.415 1.352 2.66 2.078 2.929 8.69.372 9.14 2.206 9.504 2.206.439 0-8.606-1.599-11.223-6.857-11.223-2.059 0-4.283.54-4.943 1.2-.933.933-1.2.933-1.2 0 0-.66-.45-1.2-1-1.2-.593 0-1 3.667-1 9m39-2c0 5.667.381 7.381 2 9 2.239 2.239 7.899 2.701 9.8.8.933-.933 1.2-.933 1.2 0 0 .66.45 1.2 1 1.2.593 0 1-3.667 1-9s-.407-9-1-9c-.569 0-1 2.948-1 6.845 0 7.399-1.563 10.155-5.757 10.155-3.891 0-5.243-2.597-5.243-10.071 0-3.953-.43-6.929-1-6.929-.571 0-1 3-1 7m18 2c0 5.333.407 9 1 9 .569 0 1-2.948 1-6.845 0-7.059 1.567-10.155 5.138-10.155 3.771 0 5.351 2.701 5.95 10.168l.589 7.332.161-7.095c.173-7.599 1.747-10.405 5.836-10.405 3.582 0 5.199 3.049 5.579 10.523l.355 6.977.196-7.595c.161-6.25-.128-7.888-1.633-9.25-2.268-2.053-6.052-2.127-8.841-.173-1.869 1.308-2.259 1.308-3.345 0-1.478-1.78-7.106-1.961-8.785-.282-.933.933-1.2.933-1.2 0 0-.66-.45-1.2-1-1.2-.593 0-1 3.667-1 9m-92.685-6.993c-2.636 1.062-4.315 3.952-4.315 7.427 0 6.297 8.931 9.012 12.927 3.931 3.371-4.285 2.594-8.527-1.999-10.902-3.197-1.653-3.576-1.679-6.613-.456m21 0c-1.914.771-4.315 3.791-4.315 5.427 0 .311 3.365.566 7.479.566h7.478l-1.089-2.39c-.599-1.314-2.185-2.889-3.525-3.5-2.812-1.281-3.093-1.285-6.028-.103m38.185.148c-6.896 3.772-5.568 12.958 2.087 14.434 2.379.459 3.734.039 5.907-1.83 3.752-3.227 3.756-8.286.01-11.509-2.874-2.473-4.963-2.758-8.004-1.095m86 15.845c-.34.55-.141 1 .441 1s1.059-.45 1.059-1-.198-1-.441-1-.719.45-1.059 1m-1.5 3c0 .55.477 1 1.059 1s.781-.45.441-1-.816-1-1.059-1-.441.45-.441 1m-1 4.941c0 .518.375 1.173.833 1.456.459.283.834-.14.834-.941 0-.801-.375-1.456-.834-1.456-.458 0-.833.423-.833.941m-4.136 5.559c-.696 1.925-1.625 3.5-2.065 3.5-.439 0-.747 1.012-.683 2.25.075 1.461.267 1.685.546.639.237-.886 1.56-2.125 2.941-2.754 1.38-.629 2.25-1.564 1.932-2.078-.317-.514.22-1.404 1.194-1.977 1.542-.909 1.577-1.173.271-2.046-2.327-1.556-2.779-1.286-4.136 2.466m-12.487 18c-.421 1.1-1.357 2.599-2.08 3.331-.724.731-1.06 1.744-.747 2.25.312.505-.134.919-.991.919s-1.559.695-1.559 1.544c0 .849-.637 1.411-1.416 1.25-.778-.162-4.363 2.519-7.966 5.956-3.602 3.438-7.015 6.25-7.584 6.25-1.511 0-1.281.87.996 3.765 1.561 1.985 1.736 2.761.758 3.366-.906.56-.963 1.094-.197 1.86 1.688 1.688 3.955.224 4.198-2.709.223-2.692 2.426-5.045 3.044-3.25.588 1.707 2.167 1.033 2.167-.925 0-1.041.726-2.172 1.613-2.512 1.023-.393 1.424-1.346 1.094-2.606-.564-2.159.764-3.654 1.783-2.005.345.559 1.078 1.016 1.628 1.016.55 0 .762-.385.471-.856-.291-.47.519-.655 1.8-.41 1.509.289 2.543-.114 2.938-1.144.336-.875.174-1.59-.358-1.59-.533 0-.969-.675-.969-1.5s-.436-1.5-.969-1.5c-.532 0-.72-.647-.417-1.437.329-.856 1.226-1.184 2.219-.813 1.494.56 1.516.424.205-1.313-.804-1.065-.093-.689 1.58.837l3.041 2.774 1.877-3.485c1.032-1.916 1.559-3.802 1.17-4.19-.388-.389-.706-.181-.706.46 0 .642-.978 2.145-2.174 3.341-1.585 1.585-1.999 1.72-1.531.5.353-.921.206-1.674-.326-1.674-.533 0-.969-.477-.969-1.059s.45-.781 1-.441c1.497.925 1.205-1.839-.429-4.059-1.41-1.917-1.438-1.916-2.194.059M51.165 212.877c-1.014.643-.834.976.75 1.391 1.383.361 2.085.071 2.085-.862 0-1.595-.891-1.761-2.835-.529M183 219.441c0 .87-.848 1.559-1.918 1.559-2.981 0-5.137 1.102-4.422 2.259.392.634.165.751-.572.295-1.398-.863-4.229 2.409-3.335 3.855.337.545-.218.614-1.339.165-4.367-1.747-5.044-1.864-3.414-.59 1.229.961 1.013 1.095-1.2.743-1.485-.237-2.894.075-3.131.693-.237.618-1.686 1.228-3.22 1.355-3.577.296-4.035.814-2.43 2.748.905 1.09 1.517 1.228 1.997.45.484-.782 1.171-.643 2.275.461 1.097 1.096 1.793 1.24 2.27.467.487-.787.929-.727 1.505.206 1.336 2.161 6.508-.144 6.147-2.74-.158-1.133.491-2.692 1.442-3.464 1.128-.915 1.468-.969.978-.153-.463.771-.195 1.25.7 1.25.797 0 1.746-1.18 2.108-2.623.596-2.374.999-2.567 4.244-2.041 3.267.53 3.418.455 1.7-.845-1.037-.785-1.371-1.442-.742-1.459 1.513-.042 2.532-2.806 1.313-3.559-.526-.325-.956.111-.956.968m-2.921 8.142c.048 1.165.285 1.402.604.605.289-.722.253-1.585-.079-1.917-.332-.332-.568.258-.525 1.312M72 230.059c0 1.132.43 1.793.956 1.468.526-.325.703-1.252.393-2.059-.793-2.067-1.349-1.824-1.349.591m20.538-1.12c-.524.847 2.28 2.523 3.712 2.22.412-.088.75.243.75.734s.736 1.175 1.636 1.521c1.466.562 1.486.402.189-1.551-1.618-2.437-5.479-4.232-6.287-2.924m-9.955 1.927c-.431.697-.513 1.537-.183 1.867.895.895 1.871-.421 1.387-1.871-.338-1.016-.574-1.016-1.204.004m70.625 1.884c-.706.963-1.014 1.188-.686.5.328-.687.119-1.25-.463-1.25-.582 0-1.059.675-1.059 1.5s-.45 1.5-1 1.5-1 .477-1 1.059c0 .612.528.718 1.25.25.688-.445 2.15-.809 3.25-.809 1.374 0 2.036-.704 2.113-2.25.137-2.7-.67-2.868-2.405-.5M169 232.5c0 .867.595 1.209 1.5.862.825-.317 1.5-.705 1.5-.862 0-.157-.675-.545-1.5-.862-.905-.347-1.5-.005-1.5.862m-63.181 1.218c-.81.976-.543 1.282 1.118 1.282 1.204 0 1.903.449 1.561 1.003-.656 1.061 2.987.845 4.074-.242.974-.973 3.491.328 2.799 1.448-.339.549.676.182 2.256-.816l2.873-1.815-1.886 2.19c-1.848 2.146-1.848 2.202 0 2.762 1.037.315 3.049 1.16 4.47 1.879 2.413 1.221 2.557 1.164 2.171-.854-.301-1.574.288-2.481 2.166-3.337 4.373-1.992 2.897-2.823-4.92-2.769-4.124.028-7.499-.239-7.5-.594-.002-1.303-8.114-1.424-9.182-.137m41.993-1.196c-.287.287-3.85.782-7.917 1.1-5.935.464-7.727 1-9.076 2.712-1.235 1.568-1.368 2.328-.5 2.868.65.404 1.331.298 1.514-.234.65-1.887 1.734-.93 1.954 1.726.273 3.297 2.453 4.943 3.338 2.519.343-.942.387-2.12.095-2.618-.291-.497.021-.564.693-.149.779.481 1.423-.014 1.776-1.366.458-1.75.816-1.906 2.041-.889 1.205 1 1.733.896 2.789-.549 1.248-1.706 1.352-1.705 2.453.038 1.002 1.586 1.095 1.467.728-.93-.286-1.86.018-2.75.939-2.75.748 0 1.361-.45 1.361-1 0-1.062-1.317-1.35-2.188-.478M90 234.559c0 .924-.47 1.268-1.155.846-.699-.433-.883-.276-.467.397.97 1.569 3.61.331 2.952-1.385-.716-1.867-1.33-1.801-1.33.142m37.618 6.993c-.384 1.002-.191 1.302.545.847.627-.387 1.747.125 2.489 1.139 1.278 1.748 1.348 1.727 1.348-.406 0-1.245-.447-1.974-1-1.632-.55.34-1 .141-1-.441 0-1.615-1.708-1.262-2.382.493" fill="#17181f" fill-rule="evenodd"/><path fill-opacity=".226" d="M135.542 15.792c-.298.298-.549 1.479-.557 2.625-.012 1.627-.213 1.771-.918.657-1.277-2.018-5.173-2.513-4.424-.562.314.818.104 1.488-.466 1.488-.571 0-1.182 1.012-1.358 2.25-.203 1.425-.962 2.199-2.069 2.111-.963-.076-1.75.486-1.75 1.25S123.498 27 122.883 27c-.624 0-.886-.882-.594-1.999.288-1.099.115-2.251-.383-2.559-.82-.507-1.328.884-1.024 2.808.065.413-.38.75-.989.75s-.875-.603-.593-1.341c1.417-3.691-5.205-5.754-8.356-2.603-2.014 2.014-4.532 2.704-3.444.944.34-.55.19-1-.334-1s-1.249.775-1.613 1.722c-.566 1.475-.794 1.511-1.591.25-.782-1.235-.934-1.191-.947.278-.02 2.37-.866 2.203-3.561-.705-1.83-1.974-2.387-2.163-2.847-.962-.323.839.101 1.752.967 2.084.848.325 1.304 1.208 1.015 1.962-.289.754-.064 1.371.501 1.371.566 0 .75.45.41 1s.084 1 .941 1S102 29.27 102 28.378c0-1.177.343-1.342 1.25-.6.695.569 3.914.822 7.25.569 21.174-1.603 37.405.022 51.663 5.175 4.035 1.458 8.493 2.76 9.905 2.893 1.412.133 3.1.571 3.75.972.759.47 1.182.015 1.182-1.271 0-2.276-3.514-5.116-6.329-5.116-1.265 0-1.696-.494-1.309-1.5.316-.825.139-1.556-.393-1.625-.533-.069-1.382-.181-1.886-.25s-1.254-.462-1.666-.875c-.413-.413-1.575-.75-2.584-.75-1.024 0-1.833-.716-1.833-1.622 0-1.284-.295-1.378-1.411-.452-.965.801-1.616.839-2.059.123-.356-.577-.059-1.085.661-1.128.72-.043.071-.531-1.441-1.083-1.512-.553-2.75-1.444-2.75-1.98 0-.537-.457-.693-1.016-.348a1.192 1.192 0 0 0-.396 1.633c.342.553-.326.413-1.483-.31-1.158-.723-2.105-1.656-2.105-2.074 0-.417-1.125-.759-2.5-.759-2.182 0-2.925.864-2.668 3.102.038.331-1.003.397-2.314.146-2.944-.563-3.899-2.724-2.029-4.594 1.205-1.205 1.064-1.404-1.001-1.404-1.323 0-2.648.244-2.946.542M93.507 30.989c-.35.566.051.734.941.393 1.732-.665 2.049-1.382.611-1.382-.518 0-1.216.445-1.552.989m-8.066 4.566c-1.864 1.494-1.852 1.512.309.465 1.237-.6 2.25-1.3 2.25-1.555 0-.765-.519-.544-2.559 1.09m92.992 1.103c.156 1.013-.215 2.173-.825 2.577-.699.463-.493.74.559.75.916.008 1.855.352 2.086.765.23.413.224.075-.014-.75a30.347 30.347 0 0 1-.64-2.721c-.114-.672-.487-1.5-.828-1.842-.342-.341-.493.208-.338 1.221M63 48.059c0 .582.45.781 1 .441s1-.816 1-1.059S64.55 47 64 47s-1 .477-1 1.059m-2.376 1.48c-.965 2.514-.681 3.163.498 1.136.584-1.004.851-2.036.593-2.293-.257-.258-.749.263-1.091 1.157M37 61c0 .55.477 1 1.059 1s.781-.45.441-1-.816-1-1.059-1-.441.45-.441 1m9.5 3c.34.55.816 1 1.059 1s.441-.45.441-1-.477-1-1.059-1-.781.45-.441 1m-6.35 8c-.575 1.65-.929 3-.786 3 .143 0 1.258-1.35 2.478-3 1.654-2.238 1.854-3 .786-3-.788 0-1.903 1.35-2.478 3M31 82.882c0 .55.45 1.278 1 1.618.55.34 1 .168 1-.382s-.45-1.278-1-1.618c-.55-.34-1-.168-1 .382m-.836 4.816c.585.704 1.462 1.033 1.949.732 1.588-.981.935-2.309-1.062-2.159-1.465.11-1.685.465-.887 1.427M117 89c0 1.65-.45 3-1 3s-1-.45-1-1-1.125-1-2.5-1c-1.833 0-2.5.533-2.5 2 0 1.849.662 1.999 8.75 1.986 10.041-.015 13.25-.646 13.25-2.603 0-1.026-1.572-1.383-6.094-1.383-5.252 0-6.165-.276-6.616-2-.795-3.04-2.29-2.388-2.29 1m-88.985 2.75c.009.412.396 1.35.861 2.084.689 1.087.951 1.059 1.416-.152.314-.818.301-1.755-.028-2.084-.84-.841-2.267-.745-2.249.152m-.804 5.788c-1.066 1.208-1.022 1.462.25 1.462.846 0 1.539-.675 1.539-1.5 0-1.824-.15-1.82-1.789.038M120 99.927c0 2.439.426 3.073 2.066 3.073 1.663 0 2.005-.535 1.75-2.741-.19-1.654-1.011-2.874-2.066-3.074-1.359-.258-1.75.355-1.75 2.742m9 0c0 2.439.426 3.073 2.066 3.073 1.663 0 2.005-.535 1.75-2.741-.19-1.654-1.011-2.874-2.066-3.074-1.359-.258-1.75.355-1.75 2.742m9 0c0 2.439.426 3.073 2.066 3.073 1.663 0 2.005-.535 1.75-2.741-.19-1.654-1.011-2.874-2.066-3.074-1.359-.258-1.75.355-1.75 2.742m-112.717 3.857c-.528 2.081-.615 4.669-.192 5.75.694 1.775.791 1.723.996-.534.126-1.375.192-3.156.147-3.958-.045-.803.35-2.265.878-3.25.561-1.049.579-1.792.045-1.792-.503 0-1.346 1.703-1.874 3.784M110 110c0 2.333.444 3 2 3s2-.667 2-3-.444-3-2-3-2 .667-2 3m10 0c0 2.333.444 3 2 3s2-.667 2-3-.444-3-2-3-2 .667-2 3m9 0c0 2.333.444 3 2 3s2-.667 2-3-.444-3-2-3-2 .667-2 3m9 0c0 2.333.444 3 2 3s2-.667 2-3-.444-3-2-3-2 .667-2 3m-115.643 2.489c.319.831.172 1.511-.327 1.511-1.2 0-.81 5.266.47 6.337.579.484.159.657-1 .409-1.58-.338-2.02.116-2.094 2.163-.119 3.295-.765 6.273-1.678 7.734-.443.71.283 1.394 1.911 1.803l2.626.659-2.183 2.034c-1.726 1.607-1.938 2.33-1.01 3.447.758.914.8 1.414.12 1.414-.708 0-.753 1.044-.138 3.189.71 2.476.552 3.589-.708 4.981-1.322 1.461-1.389 2.074-.362 3.311.694.836.926 1.519.516 1.519-.41 0-.185.675.5 1.5.996 1.2.99 1.5-.033 1.5-.955 0-.901.441.213 1.75 1.963 2.305 4.368 8.395 3.988 10.098-.165.741.448 2.175 1.364 3.187.915 1.011 1.405 2.257 1.09 2.768-.316.511.361 1.776 1.504 2.811s2.769 3.232 3.612 4.884c.843 1.651 2.156 3.367 2.919 3.813.762.447 1.124 1.234.805 1.75-.319.517.122.939.979.939s1.559.477 1.559 1.059.349.843.776.58c.426-.264.752 1.232.725 3.323-.036 2.685.323 3.659 1.224 3.313.701-.269 1.275.019 1.275.639 0 .621 1.121 1.64 2.492 2.264 1.853.845 2.223 1.46 1.443 2.4-.807.973-.549 1.134 1.121.697 1.959-.512 2.058-.357 1.015 1.593-.636 1.188-.8 2.101-.364 2.028 2.002-.335 3.356.193 2.8 1.093-.35.566.051.734.941.393 1.006-.386 1.552-.03 1.552 1.011 0 .884.418 1.607.929 1.607.51 0 1.523.568 2.25 1.262.726.694 2.558 1.809 4.071 2.478 1.513.67 2.75 1.951 2.75 2.847 0 1.239.599 1.479 2.5 1.002 1.509-.378 2.5-.2 2.5.451 0 .593.47.788 1.044.433.574-.355 1.699-.101 2.5.563.924.768 1.456.824 1.456.154 0-.58-.914-1.345-2.032-1.7-1.118-.355-3.147-1.759-4.509-3.121-1.361-1.362-2.933-2.194-3.492-1.849-.559.346-.904.258-.766-.196.138-.453-2.97-4.084-6.907-8.068-13.004-13.159-22.387-29.534-27.551-48.081-1.812-6.506-2.146-10.453-2.19-25.914-.042-14.428-.337-18.348-1.414-18.761-.9-.345-1.165-.01-.782.989M110 119.5c0 2.833.381 3.5 2 3.5s2-.667 2-3.5-.381-3.5-2-3.5-2 .667-2 3.5m10 .073c0 2.863.348 3.508 1.75 3.242 1.153-.218 1.857-1.438 2.063-3.573.262-2.71-.025-3.242-1.75-3.242-1.699 0-2.063.63-2.063 3.573m9-.073c0 2.833.381 3.5 2 3.5s2-.667 2-3.5-.381-3.5-2-3.5-2 .667-2 3.5m-70.805 31c-2.769 6.875-4.704 12.5-4.3 12.5.404 0 1.486-1.575 2.404-3.5 1.633-3.426 1.796-3.5 7.671-3.5 5.964 0 6.013.024 7.53 3.654.839 2.009 1.758 3.421 2.041 3.138.689-.689-8.609-24.792-9.564-24.792-.411 0-3.013 5.625-5.782 12.5m2.649-2.677L58.26 154.5l4.981.306c2.739.168 5.216.071 5.504-.217.587-.588-3.637-12.404-4.661-13.037-.361-.223-1.819 2.599-3.24 6.271m18.711-.573c-8.305 7.308 1.654 20.407 10.528 13.847L93 158.94v2.875c0 1.581-.873 3.665-1.939 4.63-2.565 2.321-8.601 2.271-11.268-.095-1.571-1.393-1.969-1.48-1.615-.35.758 2.419 5.616 4.261 9.378 3.555 5.407-1.014 6.461-3.518 6.328-15.028-.064-5.515-.322-9.237-.574-8.272-.416 1.59-.66 1.613-2.607.25-3.156-2.211-8.17-1.876-11.148.745m20.773.144C94.195 152.67 98.243 163 106.445 163c1.953 0 4.311-.861 5.694-2.08l2.361-2.08-2.473 1.58c-1.359.869-3.661 1.58-5.115 1.58-3.32 0-7.912-3.524-7.912-6.073 0-1.742.767-1.927 8-1.927 7.393 0 8-.155 8-2.045 0-1.125-1.105-3.15-2.455-4.5-3.268-3.269-8.457-3.295-12.217-.061M118.173 154c.137 9.211.16 9.298.734 2.852.634-7.107 2.813-10.852 6.314-10.852 2.889 0 5.769 1.861 5.858 3.785.052 1.134.256 1.272.603.407.772-1.928-2.624-5.192-5.403-5.192-1.326 0-3.338.496-4.472 1.103-1.583.847-2.26.789-2.919-.25-.506-.799-.799 2.537-.715 8.147m21.584-6.75c-1.295 1.238-1.649 1.711-.785 1.053.863-.659 2.685-1.643 4.049-2.187 1.648-.658 1.911-1.01.785-1.053-.932-.034-2.754.949-4.049 2.187m-59.122.823c-2.015 1.584-2.635 2.96-2.635 5.845 0 6.061 5.48 9.437 10.829 6.671 4.899-2.534 5.695-8.156 1.716-12.134-2.999-3-6.415-3.132-9.91-.382m21 0C96.922 151.78 98.127 153 106.5 153c8.185 0 8.925-.666 5.045-4.545-2.999-3-6.415-3.132-9.91-.382m34.525 5.988c-.145 3.236 2.552 7.939 4.553 7.939.35 0-.309-1.012-1.464-2.25s-2.286-3.825-2.514-5.75l-.415-3.5-.16 3.561m-3.85 3.439c.005 3.3.192 4.529.415 2.732.222-1.797.218-4.497-.01-6-.229-1.503-.411-.032-.405 3.268m10.503 5.183c.721.289 1.584.253 1.916-.079.332-.332-.258-.568-1.312-.525-1.165.048-1.402.285-.604.604m61.727 39.664c-1.014.741-1.415 1.612-.892 1.936.524.323 1.496-.283 2.16-1.348 1.43-2.289 1.203-2.395-1.268-.588m-8.04 5.193c-2.2 1.905-3.876 3.947-3.725 4.536.151.59-.167.8-.706.466-.54-.333-1.728.534-2.64 1.926-.912 1.393-2.305 2.532-3.096 2.532-.912 0-.452.912 1.262 2.5 2.874 2.664 4.405 3.165 4.405 1.441 0-.582-.45-.781-1-.441s-1 .179-1-.358c0-.536.563-1.243 1.25-1.57.688-.327.238-.406-1-.177-1.238.23-2.25.061-2.25-.375 0-1.634 6.064-1.722 7.102-.103.817 1.275.932 1.291.591.083-.664-2.356 1.249-5.236 3.025-4.555 1.229.472 1.322.308.432-.764-1.338-1.613-.535-2.681 2.017-2.681 1.008 0 1.833-.477 1.833-1.059s.45-.781 1-.441c1.751 1.082 1.074-1.724-.75-3.108-2.328-1.767-2.174-1.816-6.75 2.148M73 221.505c0 .725.662 1.221 1.471 1.102 2.445-.359 2.734-1.32.569-1.886-1.291-.338-2.04-.05-2.04.784M69 223c0 .55.477 1 1.059 1s.781-.45.441-1-.816-1-1.059-1-.441.45-.441 1m9.288 2.008c-.644 2.46-1.986 2.585-2.599.242-.422-1.614-.466-1.617-.573-.035-.138 2.037 3.439 4.313 4.382 2.788.341-.552.342-1.453.002-2.003-.869-1.405.12-1.248 3.661.583 1.991 1.03 2.923 1.17 2.667.401-.217-.65-1.885-1.809-3.707-2.575-3.08-1.295-3.349-1.253-3.833.599m14.525 4.675c.721.289 1.584.253 1.916-.079.332-.332-.258-.568-1.312-.525-1.165.048-1.402.285-.604.604m73.187.144c0 .455-1.286.638-2.857.407-1.829-.268-3.05.081-3.391.969-.33.861.186 1.442 1.358 1.53 1.039.079 1.89-.279 1.89-.795 0-1.43 1.675-1.12 3.429.633 1.428 1.429 1.571 1.378 1.571-.559 0-1.355.42-1.871 1.155-1.417.715.443.883.275.44-.44-.815-1.321-3.595-1.574-3.595-.328" fill="#17181f" fill-rule="evenodd"/></svg>