<svg xmlns="http://www.w3.org/2000/svg" width="900" height="228"><rect id="backgroundrect" width="100%" height="100%" x="0" y="0" fill="none" stroke="none" class="" style=""/>





<g class="currentLayer" style=""><title>Layer 1</title><path d="m0,0 l21.5,12 C43,24 86,48 128.8,52.80000000000001 c42.9,4.9 85.5,-9.5 128.4,-19 c42.8,-9.5 85.8,-14.1 128.6,-7.3 c42.9,6.8 85.5,25.2 128.4,22 c42.8,-3.2 85.8,-27.8 128.6,-35.7 c42.9,-7.8 85.5,1.2 128.4,5.7 C814,23 857,23 878.5,23 H900 v205 H0 z" fill="#faa121" id="svg_1" class=""/><path d="m0,87 l21.5,4.7 c21.5,4.6 64.5,14 107.3,14.8 c42.9,0.8 85.5,-6.8 128.4,-17.2 C300,79 343,66 385.8,63.5 c42.9,-2.5 85.5,5.5 128.4,16.2 c42.8,10.6 85.8,24 128.6,15.8 c42.9,-8.2 85.5,-37.8 128.4,-48 c42.8,-10.2 85.8,-0.8 107.3,3.8 L900,56 v172 H0 z" fill="#fc9825" id="svg_2" class=""/><path d="m0,90 l21.5,-1.2 c21.5,-1.1 64.5,-3.5 107.3,0.9 c42.9,4.3 85.5,15.3 128.4,23.6 c42.8,8.4 85.8,14 128.6,7.4 c42.9,-6.7 85.5,-25.7 128.4,-27.2 C557,92 600,108 642.8,113.69999999999999 c42.9,5.6 85.5,1 128.4,-2.9 c42.8,-3.8 85.8,-6.8 107.3,-8.3 L900,101 v127 H0 z" fill="#fd8e29" id="svg_3" class=""/><path d="m0,167 l21.5,-4.3 c21.5,-4.4 64.5,-13 107.3,-21.4 c42.9,-8.3 85.5,-16.3 128.4,-19.6 c42.8,-3.4 85.8,-2 128.6,1.3 c42.9,3.3 85.5,8.7 128.4,7 c42.8,-1.7000000000000002 85.8,-10.3 128.6,-13 c42.9,-2.7 85.5,0.7000000000000002 128.4,2.8 c42.8,2.2 85.8,3.2 107.3,3.7 l21.5,0.5 v104 H0 z" fill="#fd852e" id="svg_4" class=""/><path d="m0,166 l21.5,-2.3 c21.5,-2.4 64.5,-7 107.3,-1.9 c42.9,5.2 85.5,20.2 128.4,25.4 c42.8,5.1 85.8,0.5 128.6,-4.4 c42.9,-4.8 85.5,-9.8 128.4,-14.6 c42.8,-4.9 85.8,-9.5 128.6,-9.9 c42.9,-0.3000000000000001 85.5,3.7 128.4,6.9 c42.8,3.1 85.8,5.5 107.3,6.6 L900,173 v55 H0 z" fill="#fd7b33" id="svg_5" class=""/></g></svg>
