<svg xmlns="http://www.w3.org/2000/svg" viewBox="0 0 1440 320">
  <path fill="#fd7b33" fill-opacity="1" d="M0,64L34.3,74.7C68.6,85,137,107,206,133.3C274.3,160,343,192,411,176C480,160,549,96,617,80C685.7,64,754,96,823,117.3C891.4,139,960,149,1029,160C1097.1,171,1166,181,1234,176C1302.9,171,1371,149,1406,138.7L1440,128L1440,320L1405.7,320C1371.4,320,1303,320,1234,320C1165.7,320,1097,320,1029,320C960,320,891,320,823,320C754.3,320,686,320,617,320C548.6,320,480,320,411,320C342.9,320,274,320,206,320C137.1,320,69,320,34,320L0,320Z"></path>
</svg>
